<?xml version="1.0" standalone="no"?>
<!DOCTYPE svg PUBLIC "-//W3C//DTD SVG 20010904//EN"
 "http://www.w3.org/TR/2001/REC-SVG-20010904/DTD/svg10.dtd">
<svg version="1.0" xmlns="http://www.w3.org/2000/svg"
 width="1024.000000pt" height="1024.000000pt" viewBox="0 0 1024.000000 1024.000000"
 preserveAspectRatio="xMidYMid meet">

<g transform="translate(0.000000,1024.000000) scale(0.100000,-0.100000)"
fill="#000000" stroke="none">
<path d="M4905 8323 c-691 -56 -1275 -282 -1800 -697 -121 -96 -366 -339 -459
-456 -174 -219 -360 -539 -470 -806 -107 -263 -187 -568 -223 -856 -22 -184
-22 -587 1 -758 58 -435 178 -832 343 -1140 330 -615 790 -1061 1408 -1365
312 -153 605 -241 965 -291 158 -22 546 -30 723 -15 628 53 1180 266 1694 656
194 146 337 288 508 500 411 511 658 1162 694 1833 45 821 -200 1596 -708
2242 -96 123 -339 366 -461 462 -512 403 -1105 635 -1764 688 -119 9 -355 11
-451 3z m620 -343 c308 -46 547 -117 817 -243 401 -188 780 -498 1046 -855
383 -515 571 -1098 572 -1772 0 -210 -18 -391 -55 -571 -156 -747 -499 -1296
-1080 -1729 -325 -243 -665 -399 -1065 -490 -248 -57 -328 -65 -660 -65 -274
0 -318 3 -435 23 -450 80 -786 212 -1140 447 -617 409 -1019 995 -1179 1722
-56 254 -67 347 -73 614 -8 327 11 507 83 794 134 532 401 992 795 1370 153
146 230 208 401 321 381 254 812 404 1303 454 146 15 509 4 670 -20z"/>
<path d="M4880 7745 c-488 -49 -935 -220 -1306 -498 -124 -93 -360 -319 -451
-431 -130 -162 -295 -431 -373 -606 -35 -79 -112 -312 -140 -421 -68 -267 -98
-633 -70 -879 18 -163 44 -310 54 -310 6 0 24 19 41 43 16 23 112 157 213 297
468 647 646 890 652 890 6 0 109 -104 454 -458 110 -113 111 -114 126 -91 8
13 99 141 201 284 102 143 241 339 309 435 68 96 176 247 239 335 63 88 141
198 174 245 33 47 106 148 162 225 56 77 116 160 133 185 133 188 156 220 163
220 4 0 19 -15 34 -32 15 -18 60 -69 100 -113 39 -44 133 -149 207 -233 l135
-153 7 -67 c8 -75 32 -136 76 -192 25 -32 28 -40 16 -50 -8 -6 -32 -38 -53
-71 -21 -32 -42 -58 -48 -58 -5 1 -35 29 -65 63 -175 197 -394 436 -400 436
-7 0 -482 -655 -715 -985 -165 -234 -647 -909 -656 -919 -4 -5 -132 118 -285
273 -153 154 -282 281 -288 281 -11 0 -123 -153 -623 -843 l-231 -320 25 -71
c41 -115 145 -334 206 -434 114 -187 293 -400 464 -555 78 -71 137 -116 302
-231 62 -44 304 -180 385 -216 85 -39 412 -147 499 -166 98 -20 301 -43 457
-50 215 -10 564 23 735 70 138 39 201 59 310 99 168 62 212 83 359 171 295
178 415 273 600 475 272 297 422 547 540 901 52 157 99 355 110 465 2 28 10
100 16 161 17 151 8 574 -14 714 -92 581 -342 1062 -765 1472 -75 73 -164 153
-196 177 -33 25 -76 56 -95 71 -67 50 -224 142 -349 205 -302 151 -633 241
-976 265 -171 12 -243 11 -405 -5z m-193 -541 c45 -26 75 -62 98 -118 9 -22
22 -36 33 -36 43 0 151 -98 152 -137 0 -10 -95 -13 -440 -13 l-441 0 12 23
c59 110 167 171 239 134 24 -12 26 -11 48 38 35 75 76 112 152 136 37 12 100
0 147 -27z m1661 -345 c98 -21 171 -113 172 -217 0 -89 -30 -143 -109 -194
-83 -52 -212 -32 -275 43 -110 130 -55 322 104 367 47 14 51 14 108 1z m-2699
-149 c21 -10 57 -40 79 -65 28 -32 47 -45 66 -45 63 0 131 -52 161 -123 15
-36 17 -37 54 -31 75 12 138 -29 210 -136 l30 -45 -172 -7 c-95 -4 -378 -6
-629 -6 -416 1 -458 2 -458 17 0 25 60 92 95 107 26 11 34 21 39 51 14 89 69
137 159 140 l59 1 29 50 c30 52 71 88 117 102 50 15 121 11 161 -10z m3090
-394 c9 -10 11 -103 9 -348 -3 -324 -4 -334 -26 -375 -72 -136 -272 -141 -353
-9 -18 29 -19 54 -19 377 0 255 3 348 12 357 19 19 362 17 377 -2z m-586 -255
c15 -12 17 -68 17 -615 0 -363 -4 -615 -10 -635 -12 -43 -53 -86 -104 -113
-82 -42 -200 -7 -246 73 -20 36 -20 51 -20 657 0 562 2 622 16 637 14 14 39
16 174 13 115 -2 161 -7 173 -17z m-545 -1091 c1 -212 0 -400 -3 -418 -20
-113 -188 -169 -296 -98 -78 52 -79 57 -79 497 0 290 3 388 12 397 9 9 60 12
188 10 l175 -3 3 -385z m1663 263 c87 -47 136 -141 126 -243 -8 -95 -58 -168
-142 -206 -135 -63 -300 9 -349 154 -74 216 162 406 365 295z m-2223 -744 l2
-596 -23 -34 c-73 -109 -244 -111 -319 -3 l-28 39 -1 587 c0 323 2 592 6 598
4 7 68 10 183 8 l177 -3 3 -596z m-560 279 c16 -16 17 -893 1 -935 -24 -64
-100 -112 -177 -113 -66 0 -137 43 -168 102 -19 37 -21 927 -2 946 17 17 329
17 346 0z m-847 -29 c47 -24 106 -93 119 -138 31 -113 -26 -233 -135 -282
-146 -67 -320 51 -319 216 1 174 180 283 335 204z m-390 -561 c180 -54 199
-305 30 -390 -89 -45 -160 -33 -231 41 -73 75 -87 152 -44 239 49 99 143 141
245 110z"/>
</g>
</svg>
